<mxfile host="Electron" agent="Mozilla/5.0 (X11; Linux x86_64) AppleWebKit/537.36 (KHTML, like Gecko) draw.io/24.7.8 Chrome/128.0.6613.36 Electron/32.0.1 Safari/537.36" version="24.7.8">
  <diagram name="Страница — 1" id="Zvr2eW7H0rXLNG6UFAMz">
    <mxGraphModel dx="2227" dy="580" grid="1" gridSize="10" guides="1" tooltips="1" connect="1" arrows="1" fold="1" page="1" pageScale="1" pageWidth="827" pageHeight="1169" math="0" shadow="0">
      <root>
        <mxCell id="0" />
        <mxCell id="1" parent="0" />
        <UserObject label="&lt;div style=&quot;font-size: 13px;&quot;&gt;&lt;span style=&quot;background-color: initial; font-size: 13px;&quot;&gt;&lt;font style=&quot;font-size: 13px;&quot; color=&quot;#990488&quot;&gt;SELECT&lt;/font&gt; &lt;font style=&quot;font-size: 13px;&quot; color=&quot;#425dc0&quot;&gt;t1&lt;/font&gt;&lt;font style=&quot;font-size: 13px;&quot; color=&quot;#333333&quot;&gt;.&lt;/font&gt;&lt;font style=&quot;font-size: 13px;&quot; color=&quot;#425dc0&quot;&gt;value&lt;/font&gt;&lt;font style=&quot;font-size: 13px;&quot; color=&quot;#333333&quot;&gt;,&lt;/font&gt;&lt;font style=&quot;font-size: 13px;&quot; color=&quot;#990488&quot;&gt; MAX&lt;/font&gt;&lt;font style=&quot;font-size: 13px;&quot; color=&quot;#333333&quot;&gt;(&lt;/font&gt;&lt;font style=&quot;font-size: 13px;&quot; color=&quot;#425dc0&quot;&gt;t1&lt;/font&gt;&lt;font style=&quot;font-size: 13px;&quot; color=&quot;#333333&quot;&gt;.&lt;/font&gt;&lt;font style=&quot;font-size: 13px;&quot; color=&quot;#425dc0&quot;&gt;id&lt;/font&gt;&lt;font style=&quot;font-size: 13px;&quot; color=&quot;#333333&quot;&gt;)&lt;/font&gt;&lt;font style=&quot;font-size: 13px;&quot; color=&quot;#990488&quot;&gt; FROM&lt;/font&gt; &lt;font style=&quot;font-size: 13px;&quot; color=&quot;#425dc0&quot;&gt;tbl1 t1&lt;/font&gt;&lt;font style=&quot;font-size: 13px;&quot; color=&quot;#990488&quot;&gt;&amp;nbsp; &lt;/font&gt;&lt;/span&gt;&lt;span style=&quot;color: rgb(153, 4, 136); background-color: initial; font-size: 13px;&quot;&gt;JOIN&lt;/span&gt;&lt;/div&gt;&lt;font style=&quot;font-size: 13px;&quot; color=&quot;#333333&quot;&gt;&lt;div style=&quot;font-size: 13px;&quot;&gt;&lt;font style=&quot;font-size: 13px;&quot; color=&quot;#333333&quot;&gt;&lt;br style=&quot;font-size: 13px;&quot;&gt;&lt;/font&gt;&lt;/div&gt;&amp;nbsp; &amp;nbsp; &amp;nbsp; &amp;nbsp; &amp;nbsp; &amp;nbsp; &amp;nbsp; &amp;nbsp; &amp;nbsp; &amp;nbsp; &amp;nbsp; &amp;nbsp; &amp;nbsp; &amp;nbsp; &amp;nbsp; &amp;nbsp; &amp;nbsp; &amp;nbsp; &amp;nbsp; &amp;nbsp; &amp;nbsp; (&lt;/font&gt;&lt;div&gt;&lt;font color=&quot;#333333&quot;&gt;&lt;br&gt;&lt;/font&gt;&lt;div style=&quot;font-size: 13px;&quot;&gt;&lt;div style=&quot;font-size: 13px;&quot;&gt;&lt;font style=&quot;font-size: 13px;&quot; color=&quot;#990488&quot;&gt;&amp;nbsp;&lt;br style=&quot;font-size: 13px;&quot;&gt;&lt;/font&gt;&lt;div style=&quot;font-size: 13px;&quot;&gt;&amp;nbsp;&amp;nbsp;&lt;span style=&quot;color: rgb(153, 4, 136); white-space: pre; font-size: 13px;&quot;&gt;&#x9;&lt;span style=&quot;white-space: pre; font-size: 13px;&quot;&gt;&#x9;&lt;/span&gt;&lt;span style=&quot;white-space: pre; font-size: 13px;&quot;&gt;&#x9;&lt;/span&gt;&lt;span style=&quot;white-space: pre; font-size: 13px;&quot;&gt;&#x9;&lt;/span&gt;&lt;span style=&quot;white-space: pre; font-size: 13px;&quot;&gt;&#x9;  &lt;/span&gt; &lt;/span&gt;&amp;nbsp;&amp;nbsp;&lt;font style=&quot;font-size: 13px;&quot; color=&quot;#990488&quot;&gt;SELECT&lt;/font&gt; &lt;font style=&quot;font-size: 13px;&quot; color=&quot;#425dc0&quot;&gt;id, &lt;/font&gt;&lt;font style=&quot;font-size: 13px;&quot; color=&quot;#990488&quot;&gt;MAX&lt;/font&gt;&lt;font style=&quot;font-size: 13px;&quot; color=&quot;#333333&quot;&gt;(&lt;/font&gt;&lt;font style=&quot;font-size: 13px;&quot; color=&quot;#425dc0&quot;&gt;field&lt;/font&gt;&lt;font style=&quot;font-size: 13px;&quot; color=&quot;#333333&quot;&gt;)&lt;/font&gt;&amp;nbsp;&lt;font style=&quot;font-size: 13px;&quot; color=&quot;#990488&quot;&gt;FROM&lt;/font&gt; &lt;font style=&quot;font-size: 13px;&quot; color=&quot;#425dc0&quot;&gt;tbl2&lt;/font&gt;&lt;/div&gt;&lt;div style=&quot;font-size: 13px;&quot;&gt;&lt;br style=&quot;font-size: 13px;&quot;&gt;&lt;/div&gt;&lt;div style=&quot;font-size: 13px;&quot;&gt;&lt;font style=&quot;font-size: 13px;&quot; color=&quot;#990488&quot;&gt;&lt;span style=&quot;white-space: pre; font-size: 13px;&quot;&gt;&#x9;&lt;span style=&quot;white-space: pre; font-size: 13px;&quot;&gt;&#x9;&lt;/span&gt;&lt;span style=&quot;white-space: pre; font-size: 13px;&quot;&gt;&#x9;&lt;/span&gt;&lt;span style=&quot;white-space: pre; font-size: 13px;&quot;&gt;&#x9;&lt;/span&gt;&lt;span style=&quot;white-space: pre; font-size: 13px;&quot;&gt;&#x9;&lt;/span&gt;   &lt;/span&gt;&amp;nbsp; WHERE&lt;/font&gt;&lt;span style=&quot;background-color: initial; font-size: 13px;&quot;&gt;&amp;nbsp;&lt;/span&gt;&lt;font color=&quot;#425dc0&quot; style=&quot;background-color: initial; font-size: 13px;&quot;&gt;field &lt;/font&gt;&lt;font color=&quot;#990488&quot; style=&quot;background-color: initial; font-size: 13px;&quot;&gt;LIKE&lt;/font&gt;&lt;font color=&quot;#425dc0&quot; style=&quot;background-color: initial; font-size: 13px;&quot;&gt; &lt;/font&gt;&lt;font color=&quot;#b36844&quot; style=&quot;background-color: initial; font-size: 13px;&quot;&gt;&#39;%a%&#39;&lt;/font&gt;&lt;/div&gt;&lt;div style=&quot;font-size: 13px;&quot;&gt;&lt;br style=&quot;font-size: 13px;&quot;&gt;&lt;/div&gt;&lt;div style=&quot;font-size: 13px;&quot;&gt;&amp;nbsp; &amp;nbsp; &amp;nbsp; &amp;nbsp; &amp;nbsp; &amp;nbsp; &amp;nbsp; &amp;nbsp; &amp;nbsp; &amp;nbsp; &amp;nbsp; &amp;nbsp; &amp;nbsp; &amp;nbsp; &amp;nbsp; &amp;nbsp; &amp;nbsp; &amp;nbsp; &amp;nbsp; &amp;nbsp; &amp;nbsp; &amp;nbsp; &amp;nbsp;&lt;font style=&quot;font-size: 13px;&quot; color=&quot;#990488&quot;&gt;GROUP BY&lt;/font&gt;&lt;font style=&quot;font-size: 13px;&quot; color=&quot;#425dc0&quot;&gt; id&lt;/font&gt;&lt;/div&gt;&lt;div style=&quot;font-size: 13px;&quot;&gt;&lt;font style=&quot;font-size: 13px;&quot; color=&quot;#990488&quot;&gt;&amp;nbsp;&lt;/font&gt;&lt;/div&gt;&lt;div style=&quot;font-size: 13px;&quot;&gt;&lt;font style=&quot;font-size: 13px;&quot; color=&quot;#333333&quot;&gt;&amp;nbsp; &amp;nbsp; &amp;nbsp; &amp;nbsp; &amp;nbsp; &amp;nbsp; &amp;nbsp; &amp;nbsp; &amp;nbsp; &amp;nbsp; &amp;nbsp; &amp;nbsp; &amp;nbsp; &amp;nbsp; &amp;nbsp; &amp;nbsp; &amp;nbsp; &amp;nbsp; &amp;nbsp; &amp;nbsp; &amp;nbsp; )&lt;/font&gt;&lt;font style=&quot;font-size: 13px;&quot; color=&quot;#990488&quot;&gt; &lt;/font&gt;&lt;font style=&quot;font-size: 13px;&quot; color=&quot;#425dc0&quot;&gt;t2&lt;/font&gt;&lt;/div&gt;&lt;div style=&quot;font-size: 13px;&quot;&gt;&lt;div style=&quot;font-size: 13px;&quot;&gt;&lt;font style=&quot;font-size: 13px;&quot; color=&quot;#990488&quot;&gt;&lt;br style=&quot;font-size: 13px;&quot;&gt;&lt;/font&gt;&lt;/div&gt;&lt;div style=&quot;font-size: 13px;&quot;&gt;&lt;font style=&quot;font-size: 13px;&quot; color=&quot;#990488&quot;&gt;&amp;nbsp; &amp;nbsp; &amp;nbsp; &amp;nbsp; &amp;nbsp; &amp;nbsp; &amp;nbsp; &amp;nbsp; &amp;nbsp; &amp;nbsp; &amp;nbsp; &amp;nbsp; &amp;nbsp; &amp;nbsp; &amp;nbsp; &amp;nbsp; &amp;nbsp; &amp;nbsp; &amp;nbsp; &amp;nbsp; &amp;nbsp; USING &lt;/font&gt;&lt;font style=&quot;font-size: 13px;&quot; color=&quot;#333333&quot;&gt;(&lt;/font&gt;&lt;font style=&quot;font-size: 13px;&quot; color=&quot;#425dc0&quot;&gt;id&lt;/font&gt;&lt;font style=&quot;font-size: 13px;&quot; color=&quot;#333333&quot;&gt;)&lt;/font&gt;&lt;/div&gt;&lt;div style=&quot;font-size: 13px;&quot;&gt;&lt;font style=&quot;font-size: 13px;&quot; color=&quot;#990488&quot;&gt;&lt;br style=&quot;font-size: 13px;&quot;&gt;&lt;/font&gt;&lt;/div&gt;&lt;div style=&quot;font-size: 13px;&quot;&gt;&lt;font style=&quot;font-size: 13px;&quot; color=&quot;#990488&quot;&gt;WHERE &lt;/font&gt;&lt;font style=&quot;font-size: 13px;&quot; color=&quot;#425dc0&quot;&gt;t1&lt;/font&gt;&lt;font style=&quot;font-size: 13px;&quot; color=&quot;#333333&quot;&gt;.&lt;/font&gt;&lt;font style=&quot;font-size: 13px;&quot; color=&quot;#425dc0&quot;&gt;value&lt;/font&gt;&lt;font style=&quot;font-size: 13px;&quot; color=&quot;#990488&quot;&gt; &lt;/font&gt;&lt;font style=&quot;font-size: 13px;&quot; color=&quot;#333333&quot;&gt;&amp;gt;&lt;/font&gt;&lt;font style=&quot;font-size: 13px;&quot; color=&quot;#990488&quot;&gt; &lt;/font&gt;&lt;font style=&quot;font-size: 13px;&quot; color=&quot;#b36844&quot;&gt;10 &lt;/font&gt;&lt;font style=&quot;font-size: 13px;&quot; color=&quot;#990488&quot;&gt;AND&lt;/font&gt;&lt;font style=&quot;font-size: 13px;&quot; color=&quot;#b36844&quot;&gt; &lt;/font&gt;&lt;font style=&quot;font-size: 13px;&quot; color=&quot;#425dc0&quot;&gt;t1&lt;/font&gt;&lt;font style=&quot;font-size: 13px;&quot; color=&quot;#333333&quot;&gt;.&lt;/font&gt;&lt;font style=&quot;font-size: 13px;&quot; color=&quot;#425dc0&quot;&gt;id&lt;/font&gt;&lt;font style=&quot;font-size: 13px;&quot; color=&quot;#b36844&quot;&gt; &lt;/font&gt;&lt;font style=&quot;font-size: 13px;&quot; color=&quot;#333333&quot;&gt;&amp;lt;&amp;gt;&lt;/font&gt;&lt;font style=&quot;font-size: 13px;&quot; color=&quot;#b36844&quot;&gt; 4&lt;/font&gt;&lt;/div&gt;&lt;div style=&quot;font-size: 13px;&quot;&gt;&lt;font style=&quot;font-size: 13px;&quot; color=&quot;#990488&quot;&gt;&lt;br&gt;&lt;/font&gt;&lt;/div&gt;&lt;div style=&quot;font-size: 13px;&quot;&gt;&lt;font style=&quot;font-size: 13px;&quot; color=&quot;#990488&quot;&gt;&lt;br style=&quot;font-size: 13px;&quot;&gt;GROUP BY &lt;/font&gt;&lt;font style=&quot;font-size: 13px;&quot; color=&quot;#425dc0&quot;&gt;t1&lt;/font&gt;&lt;font style=&quot;font-size: 13px;&quot; color=&quot;#333333&quot;&gt;.&lt;/font&gt;&lt;font style=&quot;font-size: 13px;&quot; color=&quot;#425dc0&quot;&gt;value&lt;/font&gt;&lt;/div&gt;&lt;div style=&quot;font-size: 13px;&quot;&gt;&lt;font style=&quot;font-size: 13px;&quot; color=&quot;#990488&quot;&gt;HAVING COUNT&lt;/font&gt;&lt;font style=&quot;font-size: 13px;&quot; color=&quot;#333333&quot;&gt;(&lt;/font&gt;&lt;font style=&quot;font-size: 13px;&quot; color=&quot;#425dc0&quot;&gt;t1&lt;/font&gt;&lt;font style=&quot;font-size: 13px;&quot; color=&quot;#333333&quot;&gt;.&lt;/font&gt;&lt;font style=&quot;font-size: 13px;&quot; color=&quot;#425dc0&quot;&gt;id&lt;/font&gt;&lt;font style=&quot;font-size: 13px;&quot; color=&quot;#333333&quot;&gt;)&lt;/font&gt;&lt;font style=&quot;font-size: 13px;&quot; color=&quot;#990488&quot;&gt; &lt;/font&gt;&lt;font style=&quot;font-size: 13px;&quot; color=&quot;#333333&quot;&gt;&amp;gt;&lt;/font&gt;&lt;font style=&quot;font-size: 13px;&quot; color=&quot;#990488&quot;&gt; &lt;/font&gt;&lt;font style=&quot;font-size: 13px;&quot; color=&quot;#b36844&quot;&gt;100&lt;/font&gt;&lt;/div&gt;&lt;/div&gt;&lt;/div&gt;&lt;/div&gt;&lt;/div&gt;" link="explain select t1.value, max(t1.id) from tbl t1&#xa;join&#xa;(select id from tbl where value = 1 or value = 2) t2&#xa;using (id)&#xa;group by t1.value&#xa;having count(t1.id) &gt; 100;" id="vIY71tyn5AvRC3fnLLfw-2">
          <mxCell style="text;html=1;align=left;verticalAlign=middle;whiteSpace=wrap;rounded=0;fontFamily=Courier New;shadow=0;horizontal=1;spacing=2;fontSize=13;" parent="1" vertex="1">
            <mxGeometry x="-82" y="297" width="792" height="337" as="geometry" />
          </mxCell>
        </UserObject>
        <mxCell id="oxb3_GDn77ilGJrPBhq6-13" value="" style="rounded=1;whiteSpace=wrap;html=1;fillColor=none;align=left;verticalAlign=top;arcSize=9;" parent="1" vertex="1">
          <mxGeometry x="296" y="380" width="280" height="30" as="geometry" />
        </mxCell>
        <mxCell id="oxb3_GDn77ilGJrPBhq6-4" value="RelOptInfo (relation)" style="text;html=1;align=center;verticalAlign=middle;whiteSpace=wrap;rounded=0;fontSize=10;fontStyle=1" parent="1" vertex="1">
          <mxGeometry x="296" y="355" width="99" height="30" as="geometry" />
        </mxCell>
        <mxCell id="oxb3_GDn77ilGJrPBhq6-6" value="PlannerInfo" style="text;html=1;align=center;verticalAlign=middle;whiteSpace=wrap;rounded=0;fontSize=10;fontStyle=1" parent="1" vertex="1">
          <mxGeometry x="273" y="335" width="102" height="30" as="geometry" />
        </mxCell>
        <mxCell id="oxb3_GDn77ilGJrPBhq6-8" value="RelOptInfo (subquery)" style="text;html=1;align=center;verticalAlign=middle;whiteSpace=wrap;rounded=0;fontSize=10;fontStyle=1" parent="1" vertex="1">
          <mxGeometry x="285" y="317" width="129" height="30" as="geometry" />
        </mxCell>
        <mxCell id="oxb3_GDn77ilGJrPBhq6-10" value="RelOptInfo (relation)" style="text;html=1;align=left;verticalAlign=middle;whiteSpace=wrap;rounded=0;fontSize=10;fontStyle=1" parent="1" vertex="1">
          <mxGeometry x="-85.5" y="279" width="102" height="30" as="geometry" />
        </mxCell>
        <mxCell id="oxb3_GDn77ilGJrPBhq6-12" value="PlannerInfo" style="text;html=1;align=center;verticalAlign=middle;whiteSpace=wrap;rounded=0;fontSize=10;fontStyle=1" parent="1" vertex="1">
          <mxGeometry x="-106" y="237" width="102" height="30" as="geometry" />
        </mxCell>
        <mxCell id="oxb3_GDn77ilGJrPBhq6-14" value="PlannerGlobal" style="text;html=1;align=center;verticalAlign=middle;whiteSpace=wrap;rounded=0;fontSize=10;fontStyle=1" parent="1" vertex="1">
          <mxGeometry x="-99" y="219" width="102" height="30" as="geometry" />
        </mxCell>
        <mxCell id="TdkNsp-IxVKtCZInnueO-3" value="RelOptInfo (join)" style="text;html=1;align=left;verticalAlign=middle;whiteSpace=wrap;rounded=0;fontSize=10;fontStyle=1" parent="1" vertex="1">
          <mxGeometry x="-85.5" y="258" width="102" height="30" as="geometry" />
        </mxCell>
        <mxCell id="RwIBvyNCzQx5JKe9MGN5-1" value="" style="rounded=1;whiteSpace=wrap;html=1;fillColor=none;align=left;verticalAlign=top;arcSize=2;" vertex="1" parent="1">
          <mxGeometry x="290" y="360" width="290" height="110" as="geometry" />
        </mxCell>
        <mxCell id="RwIBvyNCzQx5JKe9MGN5-2" value="" style="rounded=1;whiteSpace=wrap;html=1;fillColor=none;align=left;verticalAlign=top;arcSize=2;" vertex="1" parent="1">
          <mxGeometry x="271" y="340" width="317" height="160" as="geometry" />
        </mxCell>
        <mxCell id="RwIBvyNCzQx5JKe9MGN5-3" value="" style="rounded=1;whiteSpace=wrap;html=1;fillColor=none;align=left;verticalAlign=top;arcSize=2;" vertex="1" parent="1">
          <mxGeometry x="-88.5" y="305" width="355.5" height="260" as="geometry" />
        </mxCell>
        <mxCell id="RwIBvyNCzQx5JKe9MGN5-4" value="" style="rounded=1;whiteSpace=wrap;html=1;fillColor=none;align=left;verticalAlign=top;arcSize=2;" vertex="1" parent="1">
          <mxGeometry x="-101" y="285" width="699" height="287" as="geometry" />
        </mxCell>
        <mxCell id="RwIBvyNCzQx5JKe9MGN5-5" value="" style="rounded=1;whiteSpace=wrap;html=1;fillColor=none;align=left;verticalAlign=top;arcSize=2;" vertex="1" parent="1">
          <mxGeometry x="-108" y="266" width="714" height="356" as="geometry" />
        </mxCell>
        <mxCell id="RwIBvyNCzQx5JKe9MGN5-6" value="" style="rounded=1;whiteSpace=wrap;html=1;fillColor=none;align=left;verticalAlign=top;arcSize=2;" vertex="1" parent="1">
          <mxGeometry x="-116" y="246" width="736" height="384" as="geometry" />
        </mxCell>
      </root>
    </mxGraphModel>
  </diagram>
</mxfile>
